<?xml version="1.0" encoding="utf-8"?>
<!-- Generator: Adobe Illustrator 22.0.1, SVG Export Plug-In . SVG Version: 6.00 Build 0)  -->
<svg version="1.1" xmlns="http://www.w3.org/2000/svg" xmlns:xlink="http://www.w3.org/1999/xlink" x="0px" y="0px"
	 width="128" height="128" viewBox="0 0 128 128" enable-background="new 0 0 128 128" xml:space="preserve">
<g id="_x33_D">
	<g>
		<rect y="42.3" fill="none" width="127.8" height="47.1"/>
		<path d="M48.6,68.8c2.3,0.4,4.1,1.1,5.4,2.2c1.3,1,2,2.5,2,4.4c0,3.3-2.2,5.7-6.6,7.4C45,84.5,38.9,85.3,31,85.3
			c-7.8,0-13.8-1.1-18-3.2c-4.2-2.1-6.3-5.2-6.3-9.2h12.5c0.1,1.9,4.1,2.9,11.8,2.9c2.9,0,5.2-0.1,6.8-0.2c1.6-0.1,2.8-0.4,3.6-0.8
			c0.8-0.4,1.2-1,1.2-1.9c0-0.8-0.5-1.4-1.5-1.8s-2.5-0.7-4.4-0.8c-1.9-0.1-4.5-0.2-7.9-0.2h-7.5v-3.5H29c3.3,0,5.9-0.1,7.8-0.3
			c1.9-0.2,3.2-0.5,4-0.9c0.8-0.4,1.2-1,1.2-1.8c0-1-0.8-1.8-2.5-2.2c-1.7-0.4-4.4-0.6-8.2-0.6c-3.6,0-6.5,0.3-8.6,0.9
			c-2.1,0.6-3.2,1.4-3.4,2.5H6.9c0-2.9,1.1-5.3,3.2-7.2c2.1-1.9,5.1-3.4,8.8-4.3c3.7-0.9,7.8-1.4,12.4-1.4c7.7,0,13.5,0.7,17.6,2.2
			c4.1,1.5,6.1,3.7,6.1,6.6c0,2.6-1.3,4.4-3.9,5.6c-2.6,1.2-6.4,1.9-11.3,2.3C43.3,68.1,46.3,68.4,48.6,68.8z"/>
		<path d="M119.8,60.7c0,3-0.7,5.7-2.2,8.1c-1.5,2.4-3.9,4.3-7.3,5.8c-3.4,1.5-7.8,2.2-13.2,2.2h-36v-32h36
			C112.3,44.7,119.8,50.1,119.8,60.7z M104.5,65.3c1.5-1,2.3-2.5,2.3-4.5c0-2.1-0.8-3.6-2.3-4.5s-4.1-1.5-7.8-1.5h-23v12h23
			C100.4,66.8,103,66.3,104.5,65.3z"/>
	</g>
</g>
<g id="Code" display="none">
	<g display="inline">
		<rect y="42.3" fill="none" width="127.8" height="61.3"/>
		<path d="M37.8,44.8H23.2c0,0.6,0.4,2,1.2,3.9c0.7,1.8,1.3,3.4,1.7,4.8c0.4,1.4,0.6,2.8,0.6,4.2c0,2.3-1.2,4.3-3.5,5.8
			c-2.4,1.5-5.5,2.6-9.5,3.3c3.9,0.6,7.1,1.7,9.5,3.3c2.4,1.5,3.5,3.5,3.5,5.8c0,1.4-0.2,2.8-0.6,4.2c-0.4,1.4-1,3-1.7,4.9
			c-0.8,1.9-1.2,3.3-1.2,3.9h14.6v9.8H11.6c-0.1-0.8-0.2-1.7-0.2-2.5c0-1.9,0.3-3.9,0.8-5.9c0.5-2,1.3-4.4,2.3-7.1
			c0.6-1.8,1.1-3.3,1.5-4.4c0.3-1.1,0.5-2,0.5-2.8c0-2-0.9-3.5-2.6-4.4c-1.7-1-4.7-1.4-8.8-1.4v-6.5c4.1,0,7-0.5,8.8-1.4
			c1.7-1,2.6-2.4,2.6-4.4c0-0.8-0.2-1.7-0.5-2.8c-0.3-1.1-0.8-2.5-1.5-4.4c-1-2.8-1.8-5.2-2.3-7.2c-0.5-2-0.8-3.9-0.8-5.8
			c0-0.9,0.1-1.7,0.2-2.5h26.2V44.8z"/>
		<path d="M80.8,38L58.5,99.2L46.9,95l22.3-61.2L80.8,38z"/>
		<path d="M113.9,62.2c1.7,1,4.7,1.4,8.8,1.4v6.5c-4.1,0-7,0.5-8.8,1.4s-2.6,2.4-2.6,4.4c0,0.8,0.2,1.7,0.5,2.8
			c0.3,1.1,0.8,2.5,1.5,4.4c1,2.8,1.8,5.2,2.3,7.1c0.5,2,0.8,3.9,0.8,5.9c0,0.9-0.1,1.7-0.2,2.5H89.9v-9.8h14.6c0-0.6-0.4-2-1.2-3.9
			c-0.7-1.9-1.3-3.5-1.7-4.9s-0.6-2.8-0.6-4.2c0-2.3,1.2-4.3,3.5-5.8c2.4-1.5,5.5-2.6,9.5-3.3c-3.9-0.7-7.1-1.7-9.5-3.3
			c-2.4-1.5-3.5-3.5-3.5-5.8c0-1.4,0.2-2.8,0.6-4.2c0.4-1.4,1-3,1.7-4.8c0.8-1.9,1.2-3.3,1.2-3.9H89.9v-9.8h26.2
			c0.1,0.8,0.2,1.7,0.2,2.5c0,1.9-0.3,3.9-0.8,5.8c-0.5,2-1.3,4.4-2.3,7.2c-0.7,1.8-1.1,3.3-1.5,4.4c-0.3,1.1-0.5,2-0.5,2.8
			C111.3,59.8,112.1,61.3,113.9,62.2z"/>
	</g>
</g>
<g id="Layer_1" display="none">
	<g display="inline">
		<path d="M63.3,0.3L25,49.3v79h76.6v-79L63.3,0.3z M93.2,118.7H33.4v-67l29.9-37.1l29.9,37.1V118.7z"/>
		<path d="M72,64.5c-1.1,1.3-8.7,7.5-8.7,8.7c0-1.2-7.5-7.5-8.7-8.7c-1.9-2.1-2.7-3.9-2.2-6.4c0.4-2.4,2.5-4.1,6.1-4.1
			s4.8,3.6,4.8,3.6s1.2-3.6,4.8-3.6s5.7,1.7,6.1,4.1C74.6,60.6,73.9,62.4,72,64.5z"/>
	</g>
</g>
</svg>
